<svg width="28" height="28" viewBox="0 0 28 28" fill="none" xmlns="http://www.w3.org/2000/svg">
<path d="M18.5267 10.8384L14 15.365L9.47333 10.8384C9.36532 10.7304 9.23709 10.6447 9.09596 10.5862C8.95484 10.5278 8.80358 10.4977 8.65083 10.4977C8.49808 10.4977 8.34682 10.5278 8.2057 10.5862C8.06457 10.6447 7.93634 10.7304 7.82833 10.8384C7.72032 10.9464 7.63464 11.0746 7.57618 11.2157C7.51773 11.3569 7.48764 11.5081 7.48764 11.6609C7.48764 11.8136 7.51773 11.9649 7.57618 12.106C7.63464 12.2471 7.72032 12.3754 7.82833 12.4834L13.1833 17.8384C13.6383 18.2934 14.3733 18.2934 14.8283 17.8384L20.1833 12.4834C20.2915 12.3754 20.3773 12.2472 20.4358 12.1061C20.4944 11.965 20.5245 11.8137 20.5245 11.6609C20.5245 11.5081 20.4944 11.3568 20.4358 11.2156C20.3773 11.0745 20.2915 10.9463 20.1833 10.8384C19.7283 10.395 18.9817 10.3834 18.5267 10.8384Z" fill="white"/>
</svg>
