<svg width="30" height="30" viewBox="0 0 30 30" fill="none" xmlns="http://www.w3.org/2000/svg">
  <path d="M26.25 20.625C26.25 21.1 25.9875 21.5125 25.5875 21.725L15.7125 27.275C15.5125 27.425 15.2625 27.5 15 27.5C14.7375 27.5 14.4875 27.425 14.2875 27.275L4.4125 21.725C4.2121 21.6197 4.04439 21.4615 3.9276 21.2675C3.8108 21.0736 3.74938 20.8514 3.75 20.625V9.375C3.75 8.9 4.0125 8.4875 4.4125 8.275L14.2875 2.725C14.4875 2.575 14.7375 2.5 15 2.5C15.2625 2.5 15.5125 2.575 15.7125 2.725L25.5875 8.275C25.9875 8.4875 26.25 8.9 26.25 9.375V20.625ZM15 5.1875L7.55 9.375L15 13.5625L22.45 9.375L15 5.1875ZM6.25 19.8875L13.75 24.1125V15.725L6.25 11.5125V19.8875ZM23.75 19.8875V11.5125L16.25 15.725V24.1125L23.75 19.8875Z" fill="white"/>
</svg>