<svg width="30" height="30" viewBox="0 0 30 30" fill="none" xmlns="http://www.w3.org/2000/svg">
  <path d="M15 25.4063C14.7083 25.4063 14.4112 25.3542 14.1087 25.25C13.8062 25.1458 13.5408 24.9792 13.3125 24.75L11.1563 22.7813C8.94792 20.7604 6.95292 18.755 5.17125 16.765C3.38958 14.775 2.49917 12.5825 2.5 10.1875C2.5 8.22917 3.15625 6.59375 4.46875 5.28125C5.78125 3.96875 7.41667 3.3125 9.375 3.3125C10.4792 3.3125 11.5208 3.54667 12.5 4.015C13.4792 4.48334 14.3125 5.12417 15 5.9375C15.6875 5.125 16.5208 4.48417 17.5 4.015C18.4792 3.54584 19.5208 3.31167 20.625 3.3125C22.5833 3.3125 24.2188 3.96875 25.5312 5.28125C26.8437 6.59375 27.5 8.22917 27.5 10.1875C27.5 12.5833 26.6146 14.7813 24.8438 16.7813C23.0729 18.7813 21.0625 20.7917 18.8125 22.8125L16.6875 24.75C16.4583 24.9792 16.1929 25.1458 15.8913 25.25C15.5896 25.3542 15.2925 25.4063 15 25.4063Z" fill="#F91880"/>
</svg>