<svg width="25" height="26" viewBox="0 0 25 26" fill="none" xmlns="http://www.w3.org/2000/svg">
<path d="M21.1875 8.92666L19.5317 8.01082V7.08332C19.5317 4.92666 17.7808 3.17749 15.625 3.17749H9.375C7.21917 3.17749 5.46917 4.92666 5.46917 7.08332V8.01082L3.8125 8.92666C2.90583 9.42749 2.34417 10.3958 2.34417 11.4267V18.5308C2.34417 21.2608 4.5625 23.4792 7.29167 23.4792H17.7083C20.4375 23.4792 22.6567 21.2608 22.6567 18.5308V11.4267C22.6567 10.385 22.0942 9.42749 21.1875 8.92666ZM20.4275 10.2917C20.8442 10.5208 21.0942 10.9583 21.0942 11.4267V11.9067L19.5317 13.125V9.80166L20.4275 10.3025V10.2917ZM9.375 4.73999H15.625C16.9167 4.73999 17.9692 5.79166 17.9692 7.08332V14.3433L14.5833 16.9792C13.365 17.9275 11.6458 17.9275 10.4267 16.9792L7.04167 14.3433V7.08332C7.04167 5.79166 8.09333 4.73999 9.385 4.73999H9.375ZM4.57333 10.2917L5.46917 9.79166V13.115L3.90667 11.8958V11.4167C3.90667 10.9475 4.16667 10.5108 4.57333 10.2808V10.2917ZM17.7083 21.9275H7.29167C5.42667 21.9275 3.90667 20.4058 3.90667 18.5417V13.8858L9.45833 18.2083C10.3542 18.9067 11.4267 19.25 12.5 19.25C13.5733 19.25 14.6458 18.9067 15.5417 18.2083L21.0942 13.8858V18.5417C21.0942 20.4058 19.5725 21.9275 17.7083 21.9275Z" fill="white"/>
<path d="M9.375 8.90668H15.625C16.0525 8.90668 16.4067 8.55168 16.4067 8.12501C16.4067 7.69834 16.0525 7.34418 15.625 7.34418H9.375C8.94833 7.34418 8.59417 7.69834 8.59417 8.12501C8.59417 8.55168 8.94833 8.90668 9.375 8.90668Z" fill="white"/>
<path d="M9.375 13.0733H15.625C16.0525 13.0733 16.4067 12.7183 16.4067 12.2917C16.4067 11.865 16.0525 11.5108 15.625 11.5108H9.375C8.94833 11.5108 8.59417 11.865 8.59417 12.2917C8.59417 12.7183 8.94833 13.0733 9.375 13.0733Z" fill="white"/>
</svg>
