<svg width="25" height="24" viewBox="0 0 25 24" fill="none" xmlns="http://www.w3.org/2000/svg">
<path d="M19.326 6.778L15.326 3.207C13.526 1.597 10.807 1.597 9.007 3.207L5.006 6.778C3.997 7.677 3.417 8.967 3.417 10.328V16.688C3.417 18.788 5.096 20.497 7.167 20.497H17.167C19.236 20.497 20.917 18.788 20.917 16.688V10.328C20.917 8.977 20.337 7.677 19.326 6.778ZM14.417 18.987H9.917V15.738C9.917 14.498 10.927 13.488 12.167 13.488C13.406 13.488 14.417 14.498 14.417 15.738V18.987ZM19.417 16.677C19.417 17.948 18.406 18.987 17.167 18.987H15.917V15.738C15.917 13.667 14.236 11.988 12.167 11.988C10.097 11.988 8.417 13.667 8.417 15.738V18.987H7.167C5.926 18.987 4.917 17.958 4.917 16.677V10.318C4.917 9.387 5.317 8.507 6.006 7.887L10.007 4.318C11.236 3.217 13.097 3.217 14.326 4.318L18.326 7.887C19.017 8.507 19.417 9.387 19.417 10.318V16.677Z" fill="white"/>
</svg>
