<svg width="25" height="24" viewBox="0 0 25 24" fill="none" xmlns="http://www.w3.org/2000/svg">
<path d="M17.761 3H10.439C9.505 3 8.599 3.377 7.939 4.038L3.938 8.039C3.277 8.699 2.9 9.605 2.9 10.539V17.861C2.9 19.815 4.485 21.4 6.438 21.4H13.761C14.695 21.4 15.601 21.023 16.261 20.362L20.262 16.361C20.923 15.701 21.3 14.795 21.3 13.861V6.538C21.3 4.585 19.715 3 17.761 3ZM17.761 4.415C18.931 4.415 19.885 5.368 19.885 6.538V13.861C19.885 14.031 19.856 14.2 19.819 14.361C19.762 14.351 19.705 14.323 19.649 14.323H15.638V11.256C15.638 9.822 14.478 8.662 13.043 8.662H9.977V4.651C9.977 4.595 9.958 4.538 9.939 4.481C10.099 4.444 10.269 4.415 10.439 4.415H17.761ZM9.977 10.077H13.043C13.695 10.077 14.223 10.605 14.223 11.256V14.323H11.156C10.505 14.323 9.977 13.795 9.977 13.144V10.077ZM8.561 5.416V8.662H5.315L8.561 5.416ZM6.438 19.985C5.268 19.985 4.315 19.032 4.315 17.861V10.539C4.315 10.369 4.344 10.2 4.381 10.039C4.438 10.049 4.495 10.077 4.551 10.077H8.561V13.144C8.561 14.578 9.722 15.738 11.156 15.738H14.223V19.749C14.223 19.805 14.242 19.862 14.261 19.919C14.1 19.956 13.931 19.985 13.761 19.985H6.438ZM15.638 18.984V15.738H18.884L15.638 18.984Z" fill="white"/>
</svg>
