<svg width="25" height="25" viewBox="0 0 25 25" fill="none" xmlns="http://www.w3.org/2000/svg">
  <path d="M3.125 18.75C3.125 19.3229 3.59375 19.7917 4.16667 19.7917H9.375V17.7083H4.16667C3.59375 17.7083 3.125 18.1771 3.125 18.75ZM3.125 6.25C3.125 6.82292 3.59375 7.29167 4.16667 7.29167H13.5417V5.20833H4.16667C3.59375 5.20833 3.125 5.67708 3.125 6.25ZM13.5417 20.8333V19.7917H20.8333C21.4062 19.7917 21.875 19.3229 21.875 18.75C21.875 18.1771 21.4062 17.7083 20.8333 17.7083H13.5417V16.6667C13.5417 16.0937 13.0729 15.625 12.5 15.625C11.9271 15.625 11.4583 16.0937 11.4583 16.6667V20.8333C11.4583 21.4062 11.9271 21.875 12.5 21.875C13.0729 21.875 13.5417 21.4062 13.5417 20.8333ZM7.29167 10.4167V11.4583H4.16667C3.59375 11.4583 3.125 11.9271 3.125 12.5C3.125 13.0729 3.59375 13.5417 4.16667 13.5417H7.29167V14.5833C7.29167 15.1562 7.76042 15.625 8.33333 15.625C8.90625 15.625 9.375 15.1562 9.375 14.5833V10.4167C9.375 9.84375 8.90625 9.375 8.33333 9.375C7.76042 9.375 7.29167 9.84375 7.29167 10.4167ZM21.875 12.5C21.875 11.9271 21.4062 11.4583 20.8333 11.4583H11.4583V13.5417H20.8333C21.4062 13.5417 21.875 13.0729 21.875 12.5ZM16.6667 9.375C17.2396 9.375 17.7083 8.90625 17.7083 8.33333V7.29167H20.8333C21.4062 7.29167 21.875 6.82292 21.875 6.25C21.875 5.67708 21.4062 5.20833 20.8333 5.20833H17.7083V4.16667C17.7083 3.59375 17.2396 3.125 16.6667 3.125C16.0937 3.125 15.625 3.59375 15.625 4.16667V8.33333C15.625 8.90625 16.0937 9.375 16.6667 9.375Z" fill="white"/>
</svg>