<svg width="20" height="20" viewBox="0 0 20 20" fill="none" xmlns="http://www.w3.org/2000/svg">
<path d="M15.1585 10.3667L12.4585 9.01668C13.5335 8.18334 14.2252 6.88334 14.2252 5.41668C14.2252 2.89168 12.1668 0.833344 9.64183 0.833344C7.11683 0.833344 5.0585 2.89168 5.0585 5.41668C5.0585 7.19168 6.07516 8.73334 7.5585 9.49168V12.2083C5.76683 11.825 5.87516 11.8417 5.67516 11.8417C5.2335 11.8417 4.81683 12.0167 4.50016 12.3333L3.3335 13.5167L7.57516 17.7583C7.9335 18.125 8.4335 18.3333 8.95016 18.3333H14.2002C15.0168 18.3333 15.7085 17.75 15.8418 16.9417L16.5085 13.0167C16.6918 11.9333 16.1502 10.8667 15.1585 10.3667ZM14.8668 12.7417L14.2002 16.6667H8.95016C8.87516 16.6667 8.8085 16.6333 8.75016 16.5833L5.6835 13.5167L9.22516 14.2583V5.41668C9.22516 5.18334 9.4085 5.00001 9.64183 5.00001C9.87516 5.00001 10.0585 5.18334 10.0585 5.41668V10.4167H11.5252L14.4085 11.8583C14.7418 12.025 14.9252 12.3833 14.8668 12.7417ZM6.72516 5.41668C6.72516 3.80834 8.0335 2.50001 9.64183 2.50001C11.2502 2.50001 12.5585 3.80834 12.5585 5.41668C12.5585 6.20834 12.2418 6.92501 11.7252 7.45001V5.41668C11.7252 4.86414 11.5057 4.33424 11.115 3.94354C10.7243 3.55284 10.1944 3.33334 9.64183 3.33334C9.08929 3.33334 8.55939 3.55284 8.16869 3.94354C7.77799 4.33424 7.5585 4.86414 7.5585 5.41668V7.45001C7.04183 6.92501 6.72516 6.20834 6.72516 5.41668Z" fill="white"/>
</svg>
