<svg width="25" height="24" viewBox="0 0 25 24" fill="none" xmlns="http://www.w3.org/2000/svg">
<path d="M12.833 2C7.453 2 3.083 6.37 3.083 11.75C3.083 17.13 7.453 21.5 12.833 21.5C18.213 21.5 22.583 17.13 22.583 11.75C22.583 6.37 18.213 2 12.833 2ZM8.523 18.77C9.503 17.36 11.113 16.5 12.833 16.5C14.553 16.5 16.163 17.35 17.153 18.77C15.893 19.55 14.423 20 12.833 20C11.243 20 9.783 19.55 8.523 18.77ZM18.343 17.87C17.073 16.07 15.033 15 12.833 15C10.633 15 8.583 16.09 7.323 17.87C5.643 16.36 4.583 14.18 4.583 11.75C4.583 7.2 8.283 3.5 12.833 3.5C17.383 3.5 21.083 7.2 21.083 11.75C21.083 14.18 20.023 16.36 18.343 17.87Z" fill="white"/>
<path d="M12.833 6C10.763 6 9.083 7.68 9.083 9.75C9.083 11.82 10.763 13.5 12.833 13.5C14.903 13.5 16.583 11.82 16.583 9.75C16.583 7.68 14.903 6 12.833 6ZM12.833 12C11.593 12 10.583 10.99 10.583 9.75C10.583 8.51 11.593 7.5 12.833 7.5C14.073 7.5 15.083 8.51 15.083 9.75C15.083 10.99 14.073 12 12.833 12Z" fill="white"/>
</svg>
