<svg id="vector" xmlns="http://www.w3.org/2000/svg" width="16.0d" height="16.0d" viewBox="0 0 16.0 16.0"><path fill="#74b6bfff" d="M8,13.715C11.156,13.715 13.714,11.156 13.714,8C13.714,4.844 11.156,2.286 8,2.286C4.844,2.286 2.285,4.844 2.285,8C2.285,11.156 4.844,13.715 8,13.715ZM8,14.857C11.787,14.857 14.857,11.787 14.857,8C14.857,4.213 11.787,1.143 8,1.143C4.213,1.143 1.143,4.213 1.143,8C1.143,11.787 4.213,14.857 8,14.857Z" fill-rule="evenodd" id="path_0"/><path fill="#74b6bfff" d="M8.176,11.429C6.186,11.429 4.566,9.809 4.566,7.819C4.566,6.44 5.334,5.202 6.569,4.586C6.625,4.559 6.692,4.57 6.735,4.613C6.779,4.657 6.791,4.724 6.763,4.779C6.538,5.237 6.424,5.73 6.424,6.243C6.424,8.074 7.913,9.564 9.745,9.564C10.263,9.564 10.76,9.447 11.223,9.217C11.279,9.189 11.345,9.2 11.389,9.244C11.433,9.287 11.444,9.354 11.417,9.41C10.804,10.655 9.563,11.429 8.176,11.429Z" id="path_1"/></svg>