<svg id="vector" xmlns="http://www.w3.org/2000/svg" width="14.0d" height="14.0d" viewBox="0 0 14.0 14.0"><path fill="#ec1260ff" d="M7,7m-7,0a7,7 0,1 1,14 0a7,7 0,1 1,-14 0" id="path_0"/><path fill="#ffffffff" d="M4.126,9.869C4.401,10.144 4.846,10.144 5.121,9.869L7,7.995L8.879,9.874C9.154,10.149 9.599,10.149 9.874,9.874C10.149,9.599 10.149,9.154 9.874,8.879L7.995,7L9.874,5.121C10.149,4.846 10.149,4.401 9.874,4.126C9.599,3.851 9.154,3.851 8.879,4.126L7,6.005L5.121,4.126C4.846,3.851 4.401,3.851 4.126,4.126C3.851,4.401 3.851,4.846 4.126,5.121L6.005,7L4.126,8.879C3.855,9.15 3.855,9.599 4.126,9.869Z" fill-rule="evenodd" id="path_1"/></svg>