<svg id="vector" xmlns="http://www.w3.org/2000/svg" width="89.0d" height="13.0d" viewBox="0 0 89.0 13.0"><path fill="#FFFFFF" d="M36.313,4.318C36.447,2.497 35.041,0.259 30.019,0.259H21.071L20.152,12.746H25.413L25.722,8.547H28.278L31.329,12.746H37.337L33.461,7.823C35.137,7.143 36.189,5.986 36.313,4.32V4.318ZM31.116,4.456C31.027,5.674 29.588,5.597 28.11,5.597H25.938L26.106,3.298H28.59C30.015,3.298 31.196,3.376 31.116,4.456Z" id="path_0"/><path fill="#ffffffff" d="M37.57,0.264L37.336,3.46H42.011L41.329,12.736H46.498L47.18,3.46H51.873L52.107,0.264H37.57Z" id="path_1"/><path fill="#ffffffff" d="M62.769,7.589H62.696L60.733,0.257H53.026L52.107,12.744H57.22L57.811,4.718H57.867L60.325,12.744H64.381L68.02,4.718H68.057L67.467,12.744H72.598L73.517,0.257H65.81L62.769,7.589Z" id="path_2"/><path fill="#ffffffff" d="M84.201,5.149L82.528,4.81C80.888,4.5 79.428,4.254 79.475,3.622C79.526,2.928 80.649,2.804 81.323,2.804C82.31,2.804 83.489,3.16 83.306,4.147H88.419C88.627,1.075 85.269,0.025 81.544,0.025C77.818,0.025 74.531,1.014 74.303,4.116C74.125,6.525 77.387,7.127 80.084,7.696C80.353,7.743 80.588,7.804 80.803,7.851C83.015,8.315 83.61,8.423 83.559,9.116C83.491,10.028 82.221,10.166 81.417,10.166C79.939,10.166 78.828,9.857 78.926,8.514H73.521C73.23,12.465 78.819,12.976 80.735,12.976C84.588,12.976 88.756,11.942 88.993,8.716C89.154,6.508 86.553,5.613 84.196,5.149H84.201Z" id="path_3"/><path fill="#ffffffff" d="M13.469,0.304L0,12.744H5.406L6.263,11.919L13.077,5.644L13.469,0.304Z" id="path_4"/><path fill="#ffffffff" d="M14.385,0.257L14.067,4.596L14.02,5.217L13.589,11.092L13.467,12.744H18.727L19.646,0.257H19.407H14.385Z" id="path_5"/></svg>