<svg id="vector" xmlns="http://www.w3.org/2000/svg" width="69.0d" height="21.0d" viewBox="0 0 69.0 21.0"><path fill="#ffffffff" d="M5.139,5.02H7.483V7.171H5.139V12.968C5.139,14.055 5.409,14.327 6.491,14.327C6.824,14.33 7.156,14.301 7.483,14.237V16.75C6.863,16.836 6.238,16.874 5.612,16.864C3.651,16.864 1.938,16.41 1.938,14.078V7.172H0V5.021H1.938V1.51H5.139V5.02Z" id="path_0"/><path fill="#ffffffff" d="M9.232,5.032H12.266V7.194H12.311C12.626,6.468 13.144,5.848 13.801,5.408C14.458,4.969 15.229,4.729 16.019,4.717C16.256,4.72 16.49,4.758 16.715,4.83V7.801C16.338,7.726 15.955,7.688 15.57,7.689C13.233,7.689 12.424,9.377 12.424,11.426V16.671H9.233V5.032H9.232Z" id="path_1"/><path fill="#ffffffff" d="M17.979,4.989H21.186V16.671H17.979V4.989ZM21.186,3.182H17.979V0.539H21.186V3.182Z" id="path_2"/><path fill="#ffffffff" d="M32.297,10.921C32.297,9.066 31.559,7.143 29.524,7.143C27.49,7.143 26.775,9.02 26.775,10.921C26.775,12.822 27.491,14.63 29.547,14.63C31.604,14.63 32.297,12.821 32.297,10.921ZM23.713,5.04H26.731V6.532H26.776C27.14,5.949 27.65,5.474 28.256,5.156C28.86,4.837 29.538,4.688 30.219,4.722C33.84,4.722 35.472,7.685 35.472,11.01C35.472,14.132 33.773,17.05 30.398,17.05C29.722,17.068 29.051,16.916 28.447,16.608C27.842,16.301 27.322,15.846 26.933,15.286H26.888V20.85H23.714V5.04H23.713Z" id="path_3"/><path fill="#ffffffff" d="M40.719,0.539H37.512V16.671H40.719V0.539Z" id="path_4"/><path fill="#ffffffff" d="M51,9.632C50.705,8.002 50.005,7.141 48.444,7.141C48.104,7.123 47.764,7.173 47.444,7.289C47.125,7.405 46.83,7.585 46.581,7.818C46.332,8.051 46.133,8.331 45.994,8.643C45.856,8.955 45.782,9.291 45.777,9.632H51H51ZM45.777,11.67C45.867,13.709 46.861,14.637 48.648,14.637C49.936,14.637 50.977,13.844 51.181,13.119H54.007C53.103,15.882 51.181,17.059 48.535,17.059C44.849,17.059 42.566,14.523 42.566,10.9C42.566,7.276 44.985,4.717 48.535,4.717C52.514,4.717 54.436,8.069 54.211,11.67H45.777L45.777,11.67Z" id="path_5"/><path fill="#ffffffff" d="M58.909,11.318C58.909,13.465 60.572,14.302 62.461,14.302C63.697,14.302 65.585,13.94 65.585,12.289C65.585,10.549 63.18,10.255 60.82,9.622C58.437,8.989 56.033,8.062 56.033,5.033C56.033,1.731 59.134,0.15 62.033,0.15C65.382,0.15 68.462,1.619 68.462,5.349H65.045C64.933,3.405 63.562,2.908 61.876,2.908C60.752,2.908 59.448,3.383 59.448,4.739C59.448,5.983 60.213,6.141 64.235,7.181C65.404,7.475 69.001,8.221 69.001,11.884C69.001,14.845 66.686,17.06 62.325,17.06C58.774,17.06 55.447,15.296 55.493,11.318H58.908L58.909,11.318Z" id="path_6"/></svg>