<svg width="200" height="53.925" viewBox="0 0 52.917 14.268" xml:space="preserve" xmlns="http://www.w3.org/2000/svg"><path d="M64.195 121.009h2.172v-7.723c0-2.304 1.912-4.032 4.137-4.032 2.277 0 3.612 1.623 3.612 3.849v7.906h2.173v-7.906c0-3.351-2.146-5.812-5.497-5.812-1.754 0-3.22.838-4.163 2.304h-.262v-1.807h-2.172zm20.91.523c4.137 0 7.095-2.958 7.095-7.147 0-4.162-2.958-7.12-7.094-7.12-4.163 0-7.095 2.958-7.095 7.12 0 4.189 2.932 7.147 7.095 7.147zm0-1.963c-2.879 0-4.92-2.173-4.92-5.184 0-2.984 2.041-5.157 4.92-5.157 2.854 0 4.922 2.173 4.922 5.157 0 3.01-2.068 5.184-4.921 5.184zm12.168 1.44h3.09l5.026-13.22h-2.225l-4.241 11.492h-.236l-4.215-11.493h-2.225Zm12.822.418c2.12 0 3.665-.837 4.608-2.356h.235v1.938h2.173v-8.77c0-3.011-2.173-4.948-5.602-4.948-3.325 0-5.498 1.78-5.498 4.581h2.2c-.027-1.65 1.282-2.618 3.272-2.618 2.173 0 3.455 1.152 3.455 2.932v.524l-3.665.445c-3.927.445-5.916 2.173-5.916 4.503 0 2.277 1.885 3.77 4.738 3.77zm.314-1.806c-1.78 0-2.88-.759-2.88-2.016 0-1.23 1.048-2.277 3.744-2.618l3.665-.418v1.178c0 2.225-1.832 3.874-4.529 3.874z" style="font-size:26.1791px;font-family:'Object Sans';-inkscape-font-specification:'Object Sans';letter-spacing:-1.3148px;word-spacing:0;fill:#fff;stroke-width:.350612" aria-label="nova" transform="translate(-64.195 -107.265)"/></svg>