<svg id="vector" xmlns="http://www.w3.org/2000/svg" width="14.0d" height="14.0d" viewBox="0 0 14.0 14.0"><path fill="#6f2cffff" d="M7,12C9.761,12 12,9.761 12,7C12,4.239 9.761,2 7,2C4.239,2 2,4.239 2,7C2,9.761 4.239,12 7,12ZM7,13C10.314,13 13,10.314 13,7C13,3.686 10.314,1 7,1C3.686,1 1,3.686 1,7C1,10.314 3.686,13 7,13Z" fill-rule="evenodd" id="path_0"/><path fill="#6f2cffff" d="M7.077,4C7.077,5.657 4.838,7 2.077,7C2.051,7 2.026,7 2,7V7C2.026,7 2.051,7 2.077,7C4.838,7 7.077,8.343 7.077,10C7.077,8.359 9.274,7.025 12,7V7C9.274,6.975 7.077,5.641 7.077,4Z" fill-rule="evenodd" id="path_1"/></svg>